<!-- icon666.com - MILLIONS vector ICONS FREE --><svg id="Hamburger_V2" enable-background="new 0 0 100 100" viewBox="0 0 100 100" xmlns="http://www.w3.org/2000/svg"><g><g><path d="m2158.58 616.54h544.25l11.34 11.33v5.67l-11.34 11.34h-544.25l-11.34-11.34v-5.67z" fill="#000000" style="fill: rgb(0, 0, 0);"></path></g><g><path d="m2158.58 758.27h430.86l11.34 11.34v5.66l-11.34 11.34h-430.86l-11.34-11.34v-5.66z" fill="#000000" style="fill: rgb(0,0,0);"></path></g><g><path d="m2158.58 900h544.25l11.34 11.34v5.67l-11.34 11.34h-544.25l-11.34-11.34v-5.67z" fill="#000000" style="fill: rgb(0,0,0);"></path></g><g><path d="m2158.58 1041.73h430.86l11.34 11.34v5.67l-11.34 11.34h-430.86l-11.34-11.34v-5.67z" fill="#000000" style="fill: rgb(0,0,0);"></path></g></g><g><g><path d="m10 16.67h80l1.67 1.66v.84l-1.67 1.66h-80l-1.67-1.66v-.84z" fill="#000000" style="fill: rgb(0,0,0);"></path></g><g><path d="m10 37.5h63.33l1.67 1.67v.83l-1.67 1.67h-63.33l-1.67-1.67v-.83z" fill="#000000" style="fill: rgb(0,0,0);"></path></g><g><path d="m10 58.33h80l1.67 1.67v.83l-1.67 1.67h-80l-1.67-1.67v-.83z" fill="#000000" style="fill: rgb(0,0,0);"></path></g><g><path d="m10 79.17h63.33l1.67 1.66v.84l-1.67 1.66h-63.33l-1.67-1.66v-.84z" fill="#000000" style="fill: rgb(0, 0, 0);"></path></g></g></svg>