<!-- icon666.com - MILLIONS vector ICONS FREE --><svg viewBox="-61 0 512 512" xmlns="http://www.w3.org/2000/svg"><path d="m0 60v392c0 33.085938 26.914062 60 60 60h330c0-32.222656 0-491.761719 0-512h-330c-33.085938 0-60 26.914062-60 60zm360 422h-300c-16.542969 0-30-13.457031-30-30s13.457031-30 30-30h300zm0-90h-270v-362h270zm-300-362v362c-10.925781 0-21.167969 2.949219-30 8.070312v-340.070312c0-16.542969 13.457031-30 30-30zm0 0"></path><path d="m330 90h-210v121h210zm-30 91h-150v-61h150zm0 0"></path><path d="m120 241h210v30h-210zm0 0"></path><path d="m150 301h150v30h-150zm0 0"></path></svg>