<!-- icon666.com - MILLIONS vector ICONS FREE --><svg id="Capa_1" enable-background="new 0 0 512 512" viewBox="0 0 512 512" xmlns="http://www.w3.org/2000/svg"><g><path d="m117 170c46.869 0 85-38.131 85-85s-38.131-85-85-85-85 38.131-85 85 38.131 85 85 85zm0-140c30.327 0 55 24.673 55 55s-24.673 55-55 55-55-24.673-55-55 24.673-55 55-55z"></path><path d="m367 290c79.953 0 145-65.047 145-145s-65.047-145-145-145-145 65.047-145 145 65.047 145 145 145zm0-260c63.411 0 115 51.589 115 115s-51.589 115-115 115-115-51.589-115-115 51.589-115 115-115z"></path><path d="m327.845 206.332c11.077 7.247 18.764 9.579 28.367 10.246v8.422c0 5.522 4.478 10 10 10s10-4.478 10-10v-9.324c19.009-4.322 31.213-20.334 33.868-36.128 3.393-20.181-7.155-37.724-26.872-44.692-2.301-.813-4.649-1.662-6.996-2.542v-39.828c5.207 1.421 7.859 4.045 8.043 4.234 3.636 4.127 9.923 4.545 14.072.93 4.164-3.628 4.6-9.944.972-14.108-3.784-4.344-11.753-9.819-23.087-11.471v-7.071c0-5.522-4.478-10-10-10s-10 4.478-10 10v8.229c-1.036.255-2.083.53-3.148.852-13.035 3.927-22.771 15.067-25.411 29.076-2.414 12.812 1.717 25.186 10.779 32.293 4.554 3.572 10.17 6.846 17.78 10.278v50.791c-6.2-.615-10.44-2.359-17.418-6.924-4.621-3.026-10.82-1.728-13.843 2.894s-1.728 10.82 2.894 13.843zm48.367-52.738c.112.04.217.078.33.118 15.416 5.448 14.472 18.614 13.814 22.52-1.217 7.239-6.019 14.902-14.145 18.495v-41.133zm-25.438-33.881c-3.117-2.444-4.479-7.489-3.468-12.852.849-4.511 3.627-9.848 8.905-12.567v29.029c-2.013-1.166-3.854-2.369-5.437-3.61z"></path><path d="m446.051 335.651-98.015 46.828c1.69-25.151-15.816-48.053-41.204-52.53l-59.75-10.536c-7.623-1.344-14.647-4.842-20.313-10.116-30.98-28.833-74.95-37.436-113.745-24.139v-8.158c0-8.284-6.716-15-15-15h-83.024c-8.284 0-15 6.716-15 15v200c0 8.284 6.716 15 15 15h83.024c8.284 0 15-6.716 15-15v-5.552l101.712 31.068c20.602 6.293 41.971 9.483 63.512 9.483 42.003 0 82.845-12.062 118.11-34.88l94.59-61.205c20.856-13.495 27.261-41.093 14.48-62.394-12.225-20.374-37.938-28.112-59.377-17.869zm-363.027 126.349h-53.024v-170h53.024zm391.627-71.273-94.591 61.206c-30.399 19.67-65.606 30.067-101.812 30.067-18.569 0-36.989-2.75-54.748-8.175l-110.476-33.745v-122.52c30.622-15.084 67.907-9.941 93.305 13.697 9.914 9.228 22.204 15.349 35.543 17.701l59.75 10.535c10.877 1.918 18.139 12.29 16.221 23.167-1.906 10.809-12.161 18.039-22.964 16.246-.168-.027-90.008-15.86-90.008-15.86-8.158-1.438-15.938 4.009-17.377 12.167-1.438 8.158 4.009 15.938 12.167 17.377h.001l89.502 15.781c15.484 2.729 31.169.59 45.356-6.188l124.464-59.464c7.481-3.574 16.453-.874 20.719 6.235 4.46 7.434 2.225 17.064-5.052 21.773z"></path></g></svg>