<!-- icon666.com - MILLIONS vector ICONS FREE --><svg id="Layer_1" viewBox="0 0 34 34" xmlns="http://www.w3.org/2000/svg"><g><path d="m24.001 33c.828 0 1.5-.672 1.5-1.5v-15.705c2.162-.567 4-2.361 4-5.295v-8c0-.828-.672-1.5-1.5-1.5s-1.5.672-1.5 1.5v8c0 1.838-1.355 2.49-2.517 2.49-1.146 0-2.483-.652-2.483-2.49v-8c0-.828-.672-1.5-1.5-1.5s-1.5.672-1.5 1.5v8c0 2.118.95 3.407 1.746 4.116.635.565 1.413.947 2.254 1.165v15.719c0 .828.672 1.5 1.5 1.5z"></path><path d="m25.501 10.5v-8c0-.828-.672-1.5-1.5-1.5s-1.5.672-1.5 1.5v8c0 .828.672 1.5 1.5 1.5s1.5-.672 1.5-1.5z"></path><path d="m10.999 33c1.93 0 3.5-1.57 3.5-3.5v-27c0-.828-.672-1.5-1.5-1.5-4.687 0-8.5 3.813-8.5 8.5v10c0 .828.672 1.5 1.5 1.5h1.5v8.5c0 1.93 1.57 3.5 3.5 3.5zm-3.5-23.5c0-2.513 1.694-4.638 4-5.292v25.292c0 .275-.225.5-.5.5-.272 0-.5-.229-.5-.5v-10c0-.828-.672-1.5-1.5-1.5h-1.5z"></path></g></svg>