<!-- icon666.com - MILLIONS vector ICONS FREE --><svg id="Capa_1" enable-background="new 0 0 512 512" viewBox="0 0 512 512" xmlns="http://www.w3.org/2000/svg"><g><circle cx="256" cy="256" fill="#fffbe4" r="256"></circle><circle cx="256" cy="256" fill="#ffe07d" r="224.373" style="fill: rgb(128, 218, 219);"></circle><path d="m335.088 45.962c62.569 39.816 104.079 109.777 104.079 189.434 0 123.918-100.456 224.373-224.374 224.373-27.838 0-54.491-5.07-79.088-14.336 34.766 22.123 76.034 34.939 120.295 34.939 123.918 0 224.374-100.455 224.374-224.373 0-96.079-60.392-178.055-145.286-210.037z" fill="#ffd064" style="fill: rgb(102, 217, 255);"></path><path d="m263.874 88.51 29.54 90.914c3.394 10.446 13.128 17.518 24.112 17.518h95.592c8.021 0 11.355 10.263 4.867 14.978l-77.336 56.188c-8.886 6.456-12.604 17.899-9.21 28.345l29.54 90.914c2.478 7.628-6.252 13.971-12.741 9.257l-77.336-56.188c-8.886-6.456-20.918-6.456-29.804 0l-77.336 56.188c-6.489 4.714-15.219-1.629-12.741-9.257l29.54-90.914c3.394-10.446-.324-21.889-9.21-28.345l-77.336-56.188c-6.489-4.714-3.154-14.978 4.867-14.978h95.592c10.983 0 20.718-7.072 24.112-17.518l29.54-90.914c2.478-7.628 13.27-7.628 15.748 0z" fill="#fffbe4"></path></g></svg>